HIERARCHY
ROOT Hips
{
	OFFSET 0.00000 0.00000 0.00000
	CHANNELS 6 Xposition Yposition Zposition Zrotation Yrotation Xrotation 
	JOINT LHipJoint
	{
		OFFSET 0 0 0
		CHANNELS 3 Zrotation Yrotation Xrotation
		JOINT LeftUpLeg
		{
			OFFSET 1.28858 -1.83292 1.03970
			CHANNELS 3 Zrotation Yrotation Xrotation
			JOINT LeftLeg
			{
				OFFSET 2.47846 -6.80952 0.00000
				CHANNELS 3 Zrotation Yrotation Xrotation
				JOINT LeftFoot
				{
					OFFSET 2.75274 -7.56311 0.00000
					CHANNELS 3 Zrotation Yrotation Xrotation
					JOINT LeftToeBase
					{
						OFFSET 0.12848 -0.35301 1.68223
						CHANNELS 3 Zrotation Yrotation Xrotation
						End Site
						{
							OFFSET 0.00000 -0.00000 0.87311
						}
					}
				}
			}
		}
	}
	JOINT RHipJoint
	{
		OFFSET 0 0 0
		CHANNELS 3 Zrotation Yrotation Xrotation
		JOINT RightUpLeg
		{
			OFFSET -1.31183 -1.83292 1.03970
			CHANNELS 3 Zrotation Yrotation Xrotation
			JOINT RightLeg
			{
				OFFSET -2.44740 -6.72417 0.00000
				CHANNELS 3 Zrotation Yrotation Xrotation
				JOINT RightFoot
				{
					OFFSET -2.67343 -7.34519 0.00000
					CHANNELS 3 Zrotation Yrotation Xrotation
					JOINT RightToeBase
					{
						OFFSET -0.16914 -0.46471 1.77626
						CHANNELS 3 Zrotation Yrotation Xrotation
						End Site
						{
							OFFSET -0.00000 -0.00000 0.92777
						}
					}
				}
			}
		}
	}
	JOINT LowerBack
	{
		OFFSET 0 0 0
		CHANNELS 3 Zrotation Yrotation Xrotation
		JOINT Spine
		{
			OFFSET 0.01249 2.14252 0.03842
			CHANNELS 3 Zrotation Yrotation Xrotation
			JOINT Spine1
			{
				OFFSET -0.02957 2.14199 -0.03751
				CHANNELS 3 Zrotation Yrotation Xrotation
				JOINT Neck
				{
					OFFSET 0 0 0
					CHANNELS 3 Zrotation Yrotation Xrotation
					JOINT Neck1
					{
						OFFSET -0.01678 1.65709 -0.05476
						CHANNELS 3 Zrotation Yrotation Xrotation
						JOINT Head
						{
							OFFSET 0.07912 1.58331 -0.11843
							CHANNELS 3 Zrotation Yrotation Xrotation
							End Site
							{
								OFFSET 0.03298 1.73940 -0.04271
							}
						}
					}
				}
				JOINT LeftShoulder
				{
					OFFSET 0 0 0
					CHANNELS 3 Zrotation Yrotation Xrotation
					JOINT LeftArm
					{
						OFFSET 3.39556 1.16496 0.08673
						CHANNELS 3 Zrotation Yrotation Xrotation
						JOINT LeftForeArm
						{
							OFFSET 5.23910 -0.00000 -0.00000
							CHANNELS 3 Zrotation Yrotation Xrotation
							JOINT LeftHand
							{
								OFFSET 3.31467 -0.00000 0.00000
								CHANNELS 3 Zrotation Yrotation Xrotation
								JOINT LeftFingerBase
								{
									OFFSET 0 0 0
									CHANNELS 3 Zrotation Yrotation Xrotation
									JOINT LeftHandIndex1
									{
										OFFSET 0.96590 -0.00000 0.00000
										CHANNELS 3 Zrotation Yrotation Xrotation
										End Site
										{
											OFFSET 0.77873 -0.00000 0.00000
										}
									}
								}
								JOINT LThumb
								{
									OFFSET 0 0 0
									CHANNELS 3 Zrotation Yrotation Xrotation
									End Site
									{
										OFFSET 0.79062 -0.00000 0.79062
									}
								}
							}
						}
					}
				}
				JOINT RightShoulder
				{
					OFFSET 0 0 0
					CHANNELS 3 Zrotation Yrotation Xrotation
					JOINT RightArm
					{
						OFFSET -3.27193 1.31331 0.33940
						CHANNELS 3 Zrotation Yrotation Xrotation
						JOINT RightForeArm
						{
							OFFSET -5.30252 -0.00000 0.00000
							CHANNELS 3 Zrotation Yrotation Xrotation
							JOINT RightHand
							{
								OFFSET -3.67875 -0.00000 0.00000
								CHANNELS 3 Zrotation Yrotation Xrotation
								JOINT RightFingerBase
								{
									OFFSET 0 0 0
									CHANNELS 3 Zrotation Yrotation Xrotation
									JOINT RightHandIndex1
									{
										OFFSET -0.59481 -0.00000 0.00000
										CHANNELS 3 Zrotation Yrotation Xrotation
										End Site
										{
											OFFSET -0.47955 -0.00000 0.00000
										}
									}
								}
								JOINT RThumb
								{
									OFFSET 0 0 0
									CHANNELS 3 Zrotation Yrotation Xrotation
									End Site
									{
										OFFSET -0.48687 -0.00000 0.48687
									}
								}
							}
						}
					}
				}
			}
		}
	}
}
MOTION
Frames: 8
Frame Time: .0083333
6.4873 20.8290 9.2073 -8.2421 -2.3895 51.1615 0.0000 0.0000 0.0000 8.6903 -18.0976 -36.7504 0.1065 -2.1039 -5.7927 -0.2492 17.6455 -22.6649 5.7447 14.1763 43.9484 0.0000 0.0000 0.0000 20.5369 17.7878 -37.8106 -0.0521 1.4729 -4.0512 0.3874 -21.8551 12.2788 -0.0202 0.9180 -2.5233 2.9104 1.8193 15.4725 -1.0910 2.5545 12.5163 -3.0645 1.4744 4.9024 -4.0507 -0.7113 -12.1981 5.3905 -0.6262 1.3241 2.4647 -0.1474 2.6312 -0.0000 0.0000 0.0000 -79.7762 15.2252 -38.1521 0.1922 -0.3330 -0.0006 -0.0000 -0.0000 53.0014 2.7094 -5.2509 -0.2481 -7.1250 0.0000 -0.0000 -17.7060 24.6897 9.1141 -0.0000 0.0000 0.0000 89.3537 -22.6701 -45.5094 -3.3827 5.8353 -0.1725 0.0000 0.0000 29.1808 -7.3409 -22.2739 2.7955 7.1250 -0.0000 -0.0000 21.5989 -51.1203 -3.3913
6.5933 21.5705 9.4260 -5.0835 -2.7207 56.8872 0.0000 0.0000 0.0000 4.9170 -19.7300 -42.0714 0.0671 -1.6712 -4.5980 -0.9401 21.4003 -22.1431 8.1840 16.2529 53.2227 0.0000 0.0000 0.0000 14.6812 14.7326 -44.3244 -0.0039 0.4025 -1.1060 1.8173 -24.1395 -1.3971 -0.1386 -2.3995 6.6112 1.3375 0.8381 16.1026 -1.6764 1.1727 11.5701 -2.6699 0.6998 3.3839 -6.3527 -0.8924 -12.3065 7.5357 -0.6381 1.7041 3.2860 -0.0774 2.5382 0.0000 -0.0000 0.0000 -81.7473 12.4814 -50.9415 1.5761 -2.7274 -0.0375 -0.0000 -0.0000 66.6057 4.1270 -8.3778 -0.6023 -7.1250 0.0000 -0.0000 -16.3226 21.6848 9.5209 0.0000 -0.0000 0.0000 89.7475 -21.3981 -42.2038 -3.8324 6.6036 -0.2212 0.0000 0.0000 27.9632 -12.0657 -33.5988 6.7460 7.1250 -0.0000 -0.0000 24.8626 -62.4595 -10.9061
6.6459 22.2889 9.6080 -5.1653 -1.2672 61.7401 0.0000 0.0000 0.0000 6.3613 -18.2473 -48.6011 0.0006 0.1552 0.4265 -0.7060 20.0923 -22.1154 9.2306 16.9539 56.8843 0.0000 0.0000 0.0000 13.7982 14.1227 -50.3015 -0.0829 -1.8569 5.1104 1.8797 -23.9289 -3.7518 -1.6549 -8.1069 23.0391 2.7350 0.6521 18.0796 -1.1740 1.1339 10.9708 -2.9669 0.7039 1.7353 -5.0632 -1.4025 -10.2755 4.3357 -1.3747 -2.0586 2.2102 -0.5832 1.1915 -0.0000 0.0000 0.0000 -82.5426 7.9411 -62.1799 2.5546 -4.4144 -0.0985 -0.0000 -0.0000 80.2972 6.9099 -16.2769 -1.9454 -7.1250 0.0000 -0.0000 -13.8795 13.9215 10.4498 -0.0000 0.0000 0.0000 90.1834 -18.4891 -40.1495 -4.1666 7.1727 -0.2613 0.0000 0.0000 26.3531 -14.2912 -33.3805 7.9782 7.1250 -0.0000 -0.0000 22.2588 -62.8329 -9.8950
6.6434 22.9588 9.7634 -6.1463 0.6736 66.4589 0.0000 0.0000 0.0000 9.1212 -14.9272 -55.2527 0.1721 2.6722 7.3675 -0.8412 18.3210 -16.4642 7.8866 16.0352 52.1532 0.0000 0.0000 0.0000 14.4034 15.2348 -56.6823 -0.4606 -4.3536 12.0736 0.9143 -20.4457 5.1958 -0.0452 1.3719 -3.7726 3.6502 0.9389 19.6985 -0.2371 1.6770 10.8106 -2.6228 0.9500 0.7835 -3.2254 -1.5474 -9.7282 1.6309 -1.7618 -5.6376 0.9894 -0.8315 -0.0933 0.0000 -0.0000 0.0000 -82.5412 1.2554 -73.5487 2.7374 -4.7288 -0.1130 -0.0000 -0.0000 92.8258 11.1287 -21.5023 -4.1240 -7.1250 0.0000 -0.0000 -11.1190 8.4343 9.5544 0.0000 -0.0000 0.0000 90.1431 -14.1356 -37.8250 -5.2182 8.9522 -0.4088 0.0000 0.0000 23.9847 -15.6943 -30.6996 8.1634 7.1250 -0.0000 -0.0000 18.4560 -60.6917 -7.2014
6.6955 23.5409 10.0194 -5.3688 0.4558 70.6345 0.0000 0.0000 0.0000 7.6668 -14.2031 -61.0576 0.7569 5.5565 15.5030 -0.2607 12.7807 -14.3453 5.3480 13.7653 42.3053 0.0000 0.0000 0.0000 11.3732 14.6805 -61.8189 -1.1543 -6.8213 19.1870 0.1353 -13.9204 8.0565 -0.6772 5.2621 -14.6576 2.7437 0.9485 21.1326 -0.1596 1.5808 10.8448 -2.0454 0.8487 0.0584 -2.5403 -1.8416 -9.0493 0.6163 -2.3002 -8.2809 0.5658 -1.1136 -1.0345 -0.0000 0.0000 0.0000 -82.0725 -5.3576 -85.4607 2.7228 -4.7037 -0.1118 -0.0000 -0.0000 101.4510 15.1079 -32.8551 -8.3324 -7.1250 0.0000 -0.0000 -9.4715 -3.3919 10.1517 -0.0000 0.0000 0.0000 89.1358 -9.0480 -29.0316 -5.7557 9.8541 -0.4966 0.0000 0.0000 17.7692 -18.6758 -30.0802 9.6155 7.1250 -0.0000 -0.0000 14.7575 -60.8169 -5.7608
6.7394 24.0740 10.2842 -5.8146 3.1671 74.2252 0.0000 0.0000 0.0000 8.8411 -12.0386 -67.4820 2.1647 9.2010 26.4260 -0.4021 11.1574 -4.3654 1.4332 7.5695 21.4140 0.0000 0.0000 0.0000 13.4129 14.4975 -65.6106 -2.4684 -9.7801 28.2676 -0.2163 -8.3823 9.4789 -2.7490 10.2772 -29.8790 4.8300 0.7730 22.9482 0.7498 1.8191 10.9065 -2.3493 0.9871 -0.6952 -2.0575 -1.7996 -7.6382 0.3376 -2.3784 -11.9688 0.4509 -1.1466 -2.4683 0.0000 0.0000 0.0000 -80.5387 -12.2211 -97.5602 1.5824 -2.7384 -0.0378 -0.0000 -0.0000 113.2100 10.3484 -35.0192 -5.9820 -7.1250 0.0000 -0.0000 -12.2966 -4.7635 13.5807 0.0000 0.0000 0.0000 87.7482 -3.4700 -19.6201 -6.4208 10.9621 -0.6167 0.0000 0.0000 12.5042 -23.4626 -29.2569 11.9763 7.1250 -0.0000 -0.0000 8.8554 -61.1751 -3.5043
6.7850 24.5344 10.5956 -5.8070 5.4168 77.2356 0.0000 0.0000 0.0000 9.6796 -10.7854 -72.3958 4.3668 12.6332 38.0104 -0.2077 8.1192 -1.8448 1.5561 7.8727 22.3282 0.0000 0.0000 0.0000 15.6748 13.3164 -67.9597 -4.2531 -12.4898 37.4876 -0.1584 -6.6418 7.9065 -3.2358 11.0673 -32.5073 6.4184 0.7045 25.1353 1.5378 2.2011 10.9408 -2.5463 1.1582 -1.6315 -1.2107 -1.9880 -5.9594 -0.2218 -2.8302 -15.2380 0.1829 -1.3847 -3.9224 0.0000 0.0000 0.0000 -78.7930 -25.4462 -109.8789 4.0899 -7.0422 -0.2518 -0.0000 -0.0000 127.3690 4.8030 -37.4453 -2.9246 -7.1250 0.0000 -0.0000 -15.4137 -6.3795 17.6492 0.0000 0.0000 0.0000 85.9997 2.6198 -10.4533 -7.3842 12.5498 -0.8131 0.0000 0.0000 7.0664 -27.1970 -27.4032 13.3063 7.1250 -0.0000 -0.0000 3.6075 -60.1801 -1.3370
6.8430 24.9314 10.9963 -4.6482 4.0220 79.1102 0.0000 0.0000 0.0000 5.7379 -11.8180 -73.0321 6.6959 15.0704 47.7147 -0.0797 5.2093 -3.4561 2.2891 9.4439 27.1941 0.0000 0.0000 0.0000 13.8486 10.5666 -68.6037 -6.7485 -15.1164 47.9167 0.0768 -7.4771 3.2849 -4.0051 12.1673 -36.3262 4.6791 0.9647 28.9196 1.3462 2.3310 10.9549 -1.9093 1.1183 -3.4726 -0.6989 -2.3162 -4.5300 -0.4554 -3.4162 -17.5412 0.0729 -1.6926 -5.0665 -0.0000 -0.0000 0.0000 -76.3166 -34.1118 -122.6565 3.4904 -6.0196 -0.1836 -0.0000 -0.0000 145.3650 15.1544 -39.9954 -9.8749 -7.1250 0.0000 -0.0000 -10.3621 -10.4280 12.2498 -0.0000 -0.0000 0.0000 83.7726 9.6394 -2.4850 -10.2723 17.1644 -1.5543 0.0000 0.0000 5.8182 -21.4024 -54.0073 17.5948 7.1250 -0.0000 -0.0000 69.1101 -79.6832 -59.0260
